<svg xmlns="http://www.w3.org/2000/svg" xmlns:xlink="http://www.w3.org/1999/xlink" viewBox="0,0,256,256" width="100px" height="100px"><g fill="#5c7cfa" fill-rule="nonzero" stroke="none" stroke-width="1" stroke-linecap="butt" stroke-linejoin="miter" stroke-miterlimit="10" stroke-dasharray="" stroke-dashoffset="0" font-family="none" font-weight="none" font-size="none" text-anchor="none" style="mix-blend-mode: normal"><g transform="scale(2.56,2.56)"><path d="M31,18c-7.18,0 -13,5.82 -13,13v39c0,7.18 5.82,13 13,13h39c7.179,0 13,-5.82 13,-13v-39c0,-7.18 -5.82,-13 -13,-13zM31,20h39c6.075,0 11,4.925 11,11v39c0,6.075 -4.925,11 -11,11h-39c-6.075,0 -11,-4.925 -11,-11v-39c0,-6.075 4.924,-11 11,-11zM33.83789,23c-5.985,0 -10.83789,4.85289 -10.83789,10.83789v33.32422c0,5.985 4.85289,10.83789 10.83789,10.83789h33.32422c5.985,0 10.83789,-4.85189 10.83789,-10.83789v-18.66211c0,-0.276 -0.224,-0.5 -0.5,-0.5c-0.276,0 -0.5,0.224 -0.5,0.5v18.66211c0,5.433 -4.40489,9.83789 -9.83789,9.83789h-33.32422c-5.433,0 -9.83789,-4.40489 -9.83789,-9.83789v-33.32422c0,-5.433 4.40489,-9.83789 9.83789,-9.83789h33.66211c0.276,0 0.5,-0.224 0.5,-0.5c0,-0.276 -0.224,-0.5 -0.5,-0.5zM50.5,28c-12.42049,0 -22.5,10.07952 -22.5,22.5c0,12.37168 10.00418,22.40754 22.35742,22.48633c0.00065,0 0.0013,0 0.00195,0c0.09304,0.02768 0.19212,0.02768 0.28516,0c12.35228,-0.07985 22.35547,-10.11531 22.35547,-22.48633c0,-12.42048 -10.07951,-22.5 -22.5,-22.5zM50,29.05078v2.44922c-0.00255,0.18032 0.09219,0.34804 0.24794,0.43894c0.15575,0.0909 0.34838,0.0909 0.50413,0c0.15575,-0.0909 0.25049,-0.25863 0.24794,-0.43894v-2.44922c5.62009,0.13128 10.69856,2.39178 14.45508,6.03711l-1.69727,1.69727c-0.13061,0.12541 -0.18321,0.31163 -0.13753,0.48684c0.04568,0.17521 0.18251,0.31204 0.35772,0.35772c0.17521,0.04568 0.36143,-0.00693 0.48684,-0.13753l1.67383,-1.67383c3.55661,3.78771 5.77061,8.83756 5.83594,14.43164h-2.22461c-0.18032,-0.00255 -0.34804,0.09219 -0.43894,0.24794c-0.0909,0.15575 -0.0909,0.34838 0,0.50413c0.0909,0.15575 0.25863,0.25049 0.43894,0.24794h2.17383c-0.19339,5.51874 -2.42165,10.5055 -6.01172,14.20508l-1.80078,-1.80078c-0.12541,-0.13062 -0.31163,-0.18324 -0.48685,-0.13756c-0.17522,0.04568 -0.31206,0.18251 -0.35774,0.35774c-0.04568,0.17522 0.00694,0.36145 0.13756,0.48685l1.77734,1.77734c-3.72987,3.5023 -8.68868,5.68224 -14.18164,5.81055v-2.44922c0.00255,-0.18032 -0.09219,-0.34804 -0.24794,-0.43894c-0.15575,-0.0909 -0.34838,-0.0909 -0.50413,0c-0.15575,0.0909 -0.25049,0.25863 -0.24794,0.43894v2.44922c-5.49296,-0.12831 -10.45177,-2.30824 -14.18164,-5.81055l1.77734,-1.77734c0.13062,-0.12541 0.18324,-0.31163 0.13756,-0.48685c-0.04568,-0.17522 -0.18251,-0.31206 -0.35774,-0.35774c-0.17522,-0.04568 -0.36145,0.00694 -0.48685,0.13756l-1.80078,1.80078c-3.59007,-3.69958 -5.81833,-8.68634 -6.01172,-14.20508h2.67383c0.18032,0.00255 0.34804,-0.09219 0.43894,-0.24794c0.0909,-0.15575 0.0909,-0.34838 0,-0.50413c-0.0909,-0.15575 -0.25863,-0.25049 -0.43894,-0.24794h-2.72461c0.06533,-5.59408 2.27932,-10.64393 5.83594,-14.43164l1.67383,1.67383c0.12541,0.13061 0.31163,0.18321 0.48684,0.13753c0.17521,-0.04568 0.31204,-0.18251 0.35772,-0.35772c0.04568,-0.17521 -0.00693,-0.36143 -0.13753,-0.48684l-1.69727,-1.69727c3.75652,-3.64533 8.83499,-5.90583 14.45508,-6.03711zM77.5,36.57813c-0.276,0 -0.5,0.224 -0.5,0.5v2c0,0.276 0.224,0.5 0.5,0.5c0.276,0 0.5,-0.223 0.5,-0.5v-2c0,-0.276 -0.224,-0.5 -0.5,-0.5zM77.5,40.57813c-0.276,0 -0.5,0.224 -0.5,0.5v4c0,0.276 0.224,0.5 0.5,0.5c0.276,0 0.5,-0.223 0.5,-0.5v-4c0,-0.276 -0.224,-0.5 -0.5,-0.5zM50.5,44c-0.827,0 -1.5,0.673 -1.5,1.5v3.01953c-0.09329,0.07006 -0.1831,0.14451 -0.26562,0.22656c-0.01825,-0.00882 -0.03151,-0.02367 -0.05078,-0.03125l-9.31836,-3.64648c-0.513,-0.201 -1.09488,0.05436 -1.29687,0.56836c-0.201,0.514 0.05436,1.09392 0.56836,1.29492l9.13086,3.57227l-14.13281,5.56641c-0.515,0.202 -0.76745,0.78287 -0.56445,1.29688c0.155,0.393 0.53169,0.63281 0.92969,0.63281c0.122,0 0.24523,-0.02231 0.36523,-0.07031l14.37891,-5.66406c0.07939,0.07799 0.16665,0.14784 0.25586,0.21484v13.01953c0,0.827 0.673,1.5 1.5,1.5c0.827,0 1.5,-0.673 1.5,-1.5v-13.01953c0.60397,-0.45399 1,-1.16809 1,-1.98047c0,-0.81238 -0.39603,-1.52686 -1,-1.98047v-3.01953c0,-0.827 -0.673,-1.5 -1.5,-1.5zM50.5,45c0.276,0 0.5,0.224 0.5,0.5v20c0,0.276 -0.224,0.5 -0.5,0.5c-0.276,0 -0.5,-0.224 -0.5,-0.5v-20c0,-0.276 0.224,-0.5 0.5,-0.5z"></path></g></g></svg>